<?xml version="1.0" encoding="UTF-8"?>
<svg id="_레이어_1_copy" data-name="레이어 1 copy" xmlns="http://www.w3.org/2000/svg" viewBox="0 0 421.13 56.69">
  <defs>
    <style>
      .cls-1 {
        fill: #f89b6c;
      }

      .cls-1, .cls-2, .cls-3, .cls-4 {
        stroke-width: 0px;
      }

      .cls-2 {
        fill: #f37321;
      }

      .cls-3 {
        fill: #fff;
      }

      .cls-4 {
        fill: #fbb584;
      }
    </style>
  </defs>
  <path class="cls-4" d="M23.08,29.06c-.81-7.37,6.91-13.29,17.25-13.2,10.34.08,19.38,6.12,20.19,13.48.81,7.38-6.91,13.28-17.25,13.2-10.34-.07-19.38-6.11-20.19-13.48M62.45,31.35c-.93-9.14-11.34-16.63-23.24-16.73-11.91-.1-20.79,7.23-19.86,16.37.93,9.14,11.34,16.63,23.24,16.73,11.9.09,20.8-7.23,19.86-16.37"/>
  <path class="cls-1" d="M44.48,47.9c-5.86,6.13-15.27,6.64-21.02,1.14-5.74-5.5-5.65-14.92.22-21.04,5.86-6.12,15.28-6.63,21.01-1.14,5.74,5.5,5.65,14.92-.22,21.04M22.77,27.8c-6.81,7.12-6.92,18.07-.25,24.46,6.67,6.39,17.61,5.8,24.42-1.32,6.82-7.12,6.93-18.07.25-24.46-6.67-6.39-17.61-5.8-24.43,1.32"/>
  <path class="cls-2" d="M23.39,4.88c12.19-4.57,24.25.05,26.93,10.32,2.68,10.27-5.03,22.31-17.22,26.87-12.19,4.57-24.25-.05-26.93-10.32C3.48,21.48,11.2,9.45,23.39,4.88M12.07,8.8C-.58,18.82-3.8,33.33,4.87,41.21c8.68,7.89,25.96,6.16,38.62-3.86,12.65-10.01,15.87-24.52,7.19-32.41C42-2.94,24.71-1.21,12.07,8.8"/>
  <g>
    <path class="cls-3" d="M91.57,16.99v22.67h-3.55v-11.96h-13.44v11.96h-3.55v-22.67h3.55v7.61h13.44v-7.61h3.55Z"/>
    <path class="cls-3" d="M100.09,39.66c-1.66,0-2.97-.46-3.94-1.39-.99-.93-1.48-2.12-1.48-3.58v-1.21c0-1.48.49-2.68,1.48-3.61.97-.95,2.28-1.42,3.94-1.42h9.26v-.09c0-1.82-1-2.72-2.99-2.72h-10.3v-3.02h10.24c2.13,0,3.76.54,4.88,1.63,1.14,1.05,1.72,2.57,1.72,4.56v6.01c0,1.54-.52,2.75-1.57,3.64-.95.81-2.28,1.21-4,1.21h-7.25ZM106.58,31.46h-5.62c-1.82,0-2.72.77-2.72,2.31v.56c0,1.52.91,2.28,2.72,2.28h5.62c1.85,0,2.78-.76,2.78-2.28v-.56c0-1.54-.93-2.31-2.78-2.31Z"/>
    <path class="cls-3" d="M123.3,22.61h3.49c2.21,0,3.95.64,5.21,1.92,1.26,1.28,1.89,3.07,1.89,5.36v9.77h-3.55v-9.59c0-1.42-.28-2.46-.83-3.11-.69-.85-1.69-1.27-2.99-1.27h-3.02c-1.26,0-2.25.42-2.96,1.27-.51.65-.77,1.69-.77,3.11v9.59h-3.55v-9.77c0-2.29.63-4.07,1.89-5.36,1.26-1.28,2.99-1.92,5.18-1.92Z"/>
    <path class="cls-3" d="M150.26,37.38c-1.26,1.52-2.83,2.28-4.71,2.28h-2.19c-1.97,0-3.54-.62-4.71-1.86-1.11-1.16-1.66-2.81-1.66-4.94v-10.24h3.52v10.27c0,1.24.27,2.15.8,2.72.61.65,1.41.98,2.4.98h1.54c1.01,0,1.82-.33,2.43-.98.55-.57.83-1.48.83-2.72v-10.27h3.49v10.27c0,1.24.27,2.15.8,2.72.61.65,1.41.98,2.4.98h1.54c1.01,0,1.82-.33,2.43-.98.55-.57.83-1.48.83-2.72v-10.27h3.52v10.24c0,2.13-.57,3.78-1.72,4.94-1.16,1.24-2.74,1.86-4.74,1.86h-2.16c-1.84,0-3.38-.76-4.65-2.28Z"/>
    <path class="cls-3" d="M173.95,25.69c-1.26,0-2.25.42-2.96,1.27-.51.65-.77,1.69-.77,3.11v9.59h-3.55v-22.73h3.55v6.72c1.03-.69,2.2-1.04,3.52-1.04h3.49c2.21,0,3.95.64,5.21,1.92,1.26,1.28,1.89,3.07,1.89,5.36v9.77h-3.55v-9.59c0-1.42-.28-2.46-.83-3.11-.69-.85-1.69-1.27-2.99-1.27h-3.02Z"/>
    <path class="cls-3" d="M192.68,39.66c-1.66,0-2.97-.46-3.94-1.39-.99-.93-1.48-2.12-1.48-3.58v-1.21c0-1.48.49-2.68,1.48-3.61.97-.95,2.28-1.42,3.94-1.42h9.26v-.09c0-1.82-1-2.72-2.99-2.72h-10.3v-3.02h10.24c2.13,0,3.76.54,4.88,1.63,1.14,1.05,1.72,2.57,1.72,4.56v6.01c0,1.54-.52,2.75-1.57,3.64-.95.81-2.28,1.21-4,1.21h-7.25ZM199.16,31.46h-5.62c-1.82,0-2.72.77-2.72,2.31v.56c0,1.52.91,2.28,2.72,2.28h5.62c1.85,0,2.78-.76,2.78-2.28v-.56c0-1.54-.93-2.31-2.78-2.31Z"/>
    <path class="cls-3" d="M217.57,31.22v-5.74c0-2.53.8-4.6,2.4-6.22,1.46-1.52,3.57-2.28,6.33-2.28h12.14v3.08h-11.99c-1.68,0-3.02.55-4.03,1.66-.87,1.01-1.29,2.31-1.27,3.91v5.42c-.02,1.58.4,2.87,1.27,3.88,1.01,1.11,2.35,1.66,4.03,1.66h11.99v3.08h-12.14c-2.76,0-4.87-.75-6.33-2.25-1.6-1.64-2.4-3.7-2.4-6.19Z"/>
    <path class="cls-3" d="M253.63,39.66h-5.24c-2.11-.02-3.77-.63-4.97-1.84-1.2-1.18-1.81-2.88-1.81-5.09v-3.17c0-2.23.6-3.94,1.81-5.12,1.2-1.2,2.86-1.82,4.97-1.83h5.24c2.13.02,3.8.63,5,1.83,1.2,1.18,1.81,2.89,1.81,5.12v3.17c0,2.21-.6,3.91-1.81,5.09-1.2,1.2-2.87,1.82-5,1.84ZM253.36,36.58c1.26,0,2.19-.38,2.78-1.15.49-.65.74-1.61.74-2.87v-2.78c0-1.28-.25-2.25-.74-2.9-.59-.79-1.52-1.18-2.78-1.18h-4.74c-1.24,0-2.16.4-2.75,1.18-.47.65-.71,1.62-.71,2.9v2.78c0,1.26.24,2.22.71,2.87.59.77,1.51,1.15,2.75,1.15h4.74Z"/>
    <path class="cls-3" d="M263.51,27.94c0-1.68.54-3,1.63-3.97.99-.91,2.54-1.36,4.65-1.36h6.57v3.08h-6.33c-1.95,0-2.93.9-2.93,2.69v11.28h-3.58v-11.72Z"/>
    <path class="cls-3" d="M278.7,29.57c0-2.23.6-3.94,1.81-5.12,1.2-1.2,2.86-1.82,4.97-1.83h4.65c2.11.02,3.77.63,4.97,1.83,1.22,1.18,1.84,2.89,1.84,5.12v3.17c0,2.21-.61,3.91-1.84,5.09-1.2,1.2-2.85,1.82-4.94,1.84h-7.9v5.86h-3.55v-15.95ZM282.25,29.77v6.81h7.64c1.24,0,2.17-.38,2.78-1.15.47-.65.71-1.61.71-2.87v-2.78c0-1.28-.24-2.25-.71-2.9-.61-.79-1.54-1.18-2.78-1.18h-4.17c-1.24,0-2.16.4-2.75,1.18-.47.65-.71,1.62-.71,2.9Z"/>
    <path class="cls-3" d="M312.03,39.66h-5.24c-2.11-.02-3.77-.63-4.97-1.84-1.2-1.18-1.81-2.88-1.81-5.09v-3.17c0-2.23.6-3.94,1.81-5.12,1.2-1.2,2.86-1.82,4.97-1.83h5.24c2.13.02,3.8.63,5,1.83,1.2,1.18,1.81,2.89,1.81,5.12v3.17c0,2.21-.6,3.91-1.81,5.09-1.2,1.2-2.87,1.82-5,1.84ZM311.76,36.58c1.26,0,2.19-.38,2.78-1.15.49-.65.74-1.61.74-2.87v-2.78c0-1.28-.25-2.25-.74-2.9-.59-.79-1.52-1.18-2.78-1.18h-4.74c-1.24,0-2.16.4-2.75,1.18-.47.65-.71,1.62-.71,2.9v2.78c0,1.26.24,2.22.71,2.87.59.77,1.51,1.15,2.75,1.15h4.74Z"/>
    <path class="cls-3" d="M321.91,27.94c0-1.68.54-3,1.63-3.97.99-.91,2.54-1.36,4.65-1.36h6.57v3.08h-6.33c-1.95,0-2.93.9-2.93,2.69v11.28h-3.58v-11.72Z"/>
    <path class="cls-3" d="M342.34,39.66c-1.66,0-2.97-.46-3.94-1.39-.99-.93-1.48-2.12-1.48-3.58v-1.21c0-1.48.49-2.68,1.48-3.61.97-.95,2.28-1.42,3.94-1.42h9.26v-.09c0-1.82-1-2.72-2.99-2.72h-10.3v-3.02h10.24c2.13,0,3.76.54,4.88,1.63,1.14,1.05,1.72,2.57,1.72,4.56v6.01c0,1.54-.52,2.75-1.57,3.64-.95.81-2.28,1.21-4,1.21h-7.25ZM348.82,31.46h-5.62c-1.82,0-2.72.77-2.72,2.31v.56c0,1.52.91,2.28,2.72,2.28h5.62c1.85,0,2.78-.76,2.78-2.28v-.56c0-1.54-.93-2.31-2.78-2.31Z"/>
    <path class="cls-3" d="M366.49,22.61h5.33v2.99h-5.33v14.06h-3.58v-14.06h-5.33v-2.99h5.33v-3.85h3.58v3.85Z"/>
    <path class="cls-3" d="M378.6,19.18c0,.65-.23,1.17-.7,1.57-.46.4-1.02.59-1.67.59s-1.17-.2-1.61-.59c-.44-.39-.67-.92-.67-1.57s.22-1.18.67-1.58c.44-.4.98-.61,1.61-.61s1.21.2,1.67.61c.46.4.7.93.7,1.58ZM374.45,39.66v-17.05h3.61v17.05h-3.61Z"/>
    <path class="cls-3" d="M393.52,39.66h-5.24c-2.11-.02-3.77-.63-4.97-1.84-1.2-1.18-1.81-2.88-1.81-5.09v-3.17c0-2.23.6-3.94,1.81-5.12,1.2-1.2,2.86-1.82,4.97-1.83h5.24c2.13.02,3.8.63,5,1.83,1.2,1.18,1.81,2.89,1.81,5.12v3.17c0,2.21-.6,3.91-1.81,5.09-1.2,1.2-2.87,1.82-5,1.84ZM393.25,36.58c1.26,0,2.19-.38,2.78-1.15.49-.65.74-1.61.74-2.87v-2.78c0-1.28-.25-2.25-.74-2.9-.59-.79-1.52-1.18-2.78-1.18h-4.74c-1.24,0-2.16.4-2.75,1.18-.47.65-.71,1.62-.71,2.9v2.78c0,1.26.24,2.22.71,2.87.59.77,1.51,1.15,2.75,1.15h4.74Z"/>
    <path class="cls-3" d="M410.54,22.61h3.49c2.21,0,3.95.64,5.21,1.92,1.26,1.28,1.89,3.07,1.89,5.36v9.77h-3.55v-9.59c0-1.42-.28-2.46-.83-3.11-.69-.85-1.69-1.27-2.99-1.27h-3.02c-1.26,0-2.25.42-2.96,1.27-.51.65-.77,1.69-.77,3.11v9.59h-3.55v-9.77c0-2.29.63-4.07,1.89-5.36,1.26-1.28,2.99-1.92,5.18-1.92Z"/>
  </g>
</svg>